<svg xmlns="http://www.w3.org/2000/svg" width="769" height="769" viewBox="0 0 769 769">
  <g fill="#C89130">
    <path d="M 344.17,201.62 C 339.49,200.31 315.87,205.24 301.36,208.90 C 286.84,212.56 271.76,217.77 257.08,223.58 C 242.39,229.39 227.50,236.38 213.23,243.75 C 198.96,251.13 184.93,259.22 171.46,267.81 C 157.98,276.41 144.89,285.61 132.37,295.32 C 119.85,305.04 107.79,315.28 96.35,326.10 C 84.91,336.92 74.09,347.87 63.72,360.23 C 53.35,372.60 42.05,386.38 34.13,400.28 C 26.22,414.18 14.66,432.51 16.23,443.64 C 17.79,454.77 31.20,465.62 43.52,467.05 C 55.84,468.48 75.74,459.13 90.15,452.20 C 104.56,445.26 117.07,434.71 129.99,425.44 C 142.91,416.17 154.88,406.16 167.66,396.58 C 180.45,387.01 193.43,377.21 206.71,368.00 C 219.99,358.79 233.52,349.63 247.35,341.32 C 261.17,333.02 275.26,325.03 289.65,318.16 C 304.03,311.29 318.70,305.01 333.68,300.12 C 348.65,295.22 363.92,291.18 379.50,288.79 C 395.08,286.40 411.11,285.30 427.17,285.77 C 443.24,286.24 459.87,288.40 475.89,291.59 C 491.92,294.77 508.13,299.46 523.32,304.89 C 538.51,310.31 553.13,316.89 567.03,324.15 C 580.93,331.40 593.83,339.55 606.74,348.42 C 619.64,357.29 631.86,366.99 644.46,377.37 C 657.06,387.75 669.62,399.44 682.33,410.69 C 695.04,421.95 708.98,435.77 720.71,444.89 C 732.43,454.01 750.78,468.24 752.69,465.41 C 754.61,462.58 741.18,440.43 732.20,427.91 C 723.21,415.39 710.23,402.13 698.80,390.29 C 687.37,378.45 675.58,367.73 663.61,356.85 C 651.65,345.96 639.70,334.88 627.02,324.97 C 614.35,315.05 601.33,305.46 587.58,297.37 C 573.83,289.28 559.33,282.27 544.53,276.42 C 529.72,270.57 514.29,265.86 498.74,262.27 C 483.18,258.69 467.18,256.25 451.21,254.93 C 435.24,253.61 418.98,253.42 402.93,254.36 C 386.88,255.30 370.70,257.39 354.90,260.57 C 339.10,263.75 323.35,268.25 308.11,273.43 C 292.86,278.61 277.84,285.05 263.44,291.65 C 249.04,298.26 235.08,305.73 221.71,313.08 C 208.34,320.44 196.84,327.70 183.22,335.80 C 169.60,343.89 153.30,355.22 139.99,361.67 C 126.67,368.12 106.09,378.19 103.34,374.48 C 100.58,370.77 114.18,350.71 123.47,339.41 C 132.75,328.12 146.17,316.75 159.08,306.72 C 171.98,296.68 186.91,287.74 200.87,279.19 C 214.83,270.64 229.21,262.86 242.85,255.41 C 256.48,247.96 268.24,240.97 282.67,234.52 C 297.11,228.08 319.18,222.22 329.43,216.74 C 339.68,211.25 348.85,202.92 344.17,201.62 Z"></path>
    <path d="M 597.04,394.10 C 589.64,394.63 580.62,398.98 572.89,402.54 C 565.16,406.11 557.87,410.72 550.64,415.51 C 543.41,420.30 536.51,425.85 529.53,431.29 C 522.56,436.74 515.79,442.66 508.82,448.19 C 501.85,453.73 494.95,459.45 487.74,464.51 C 480.53,469.56 473.25,474.51 465.54,478.52 C 457.84,482.54 449.82,486.01 441.51,488.59 C 433.20,491.17 424.46,492.94 415.69,494.03 C 406.93,495.12 397.87,495.44 388.93,495.15 C 380.00,494.87 370.90,493.86 362.09,492.31 C 353.27,490.76 344.44,488.54 336.02,485.85 C 327.61,483.15 319.36,479.85 311.60,476.12 C 303.84,472.38 296.62,468.12 289.46,463.45 C 282.30,458.79 275.63,453.64 268.63,448.11 C 261.63,442.58 254.77,436.50 247.45,430.29 C 240.14,424.08 230.81,414.91 224.74,410.85 C 218.68,406.78 212.33,404.12 211.05,405.89 C 209.77,407.67 213.15,415.15 217.07,421.50 C 220.99,427.85 228.26,436.85 234.55,444.00 C 240.84,451.15 247.79,458.12 254.80,464.39 C 261.82,470.65 269.15,476.39 276.65,481.58 C 284.16,486.76 291.94,491.41 299.85,495.48 C 307.77,499.55 315.91,503.07 324.14,505.99 C 332.38,508.91 340.80,511.27 349.28,513.02 C 357.76,514.76 366.37,515.92 375.01,516.46 C 383.64,517.00 392.37,516.90 401.07,516.26 C 409.76,515.62 418.51,514.36 427.17,512.61 C 435.82,510.86 444.48,508.53 453.00,505.75 C 461.51,502.97 469.98,499.65 478.26,495.92 C 486.53,492.19 494.71,487.97 502.64,483.37 C 510.57,478.78 518.48,473.20 525.83,468.35 C 533.19,463.49 540.85,456.64 546.75,454.23 C 552.65,451.82 560.65,451.20 561.24,453.88 C 561.84,456.57 556.21,464.57 550.31,470.35 C 544.41,476.13 533.60,483.15 525.84,488.56 C 518.09,493.98 510.74,498.54 503.78,502.83 C 496.81,507.12 492.02,510.14 484.06,514.30 C 476.10,518.47 464.33,523.58 456.00,527.82 C 447.68,532.05 436.22,537.37 434.11,539.70 C 432.00,542.03 437.92,542.32 443.34,541.78 C 448.76,541.25 458.67,538.97 466.62,536.48 C 474.57,533.98 482.95,530.52 491.04,526.81 C 499.13,523.11 507.35,518.69 515.17,514.24 C 522.98,509.79 530.62,505.02 537.91,500.12 C 545.21,495.22 552.16,490.21 558.96,484.83 C 565.76,479.45 572.28,473.88 578.72,467.84 C 585.16,461.79 591.68,455.62 597.62,448.56 C 603.56,441.50 611.07,433.67 614.35,425.47 C 617.63,417.27 620.18,404.58 617.30,399.35 C 614.41,394.13 604.44,393.57 597.04,394.10 Z"></path>
  </g>
</svg>