<svg width="1600" height="900" viewBox="0 0 1600 900" fill="none" xmlns="http://www.w3.org/2000/svg">
  <defs>
    <linearGradient id="sky" x1="800" y1="0" x2="800" y2="540" gradientUnits="userSpaceOnUse">
      <stop stop-color="#0F4C81"/>
      <stop offset="1" stop-color="#7CC7FF"/>
    </linearGradient>
    <linearGradient id="water" x1="800" y1="470" x2="800" y2="900" gradientUnits="userSpaceOnUse">
      <stop stop-color="#7ED6FF"/>
      <stop offset="1" stop-color="#103B5B"/>
    </linearGradient>
    <linearGradient id="glass" x1="800" y1="170" x2="800" y2="730" gradientUnits="userSpaceOnUse">
      <stop stop-color="#0F172A" stop-opacity="0.18"/>
      <stop offset="1" stop-color="#0F172A" stop-opacity="0.44"/>
    </linearGradient>
    <filter id="blur" x="0" y="0" width="1600" height="900" filterUnits="userSpaceOnUse">
      <feGaussianBlur stdDeviation="12"/>
    </filter>
  </defs>
  <rect width="1600" height="900" rx="36" fill="#07111C"/>
  <rect x="40" y="40" width="1520" height="820" rx="28" fill="url(#sky)"/>
  <rect x="40" y="470" width="1520" height="390" rx="0" fill="url(#water)"/>
  <circle cx="1260" cy="170" r="64" fill="#FFF3B0" fill-opacity="0.96"/>
  <g opacity="0.95" filter="url(#blur)">
    <path d="M260 500C470 430 690 420 920 460C1130 496 1320 489 1470 442" stroke="#F9FAFB" stroke-width="20" stroke-linecap="round"/>
    <path d="M190 560C420 498 660 484 920 520C1110 548 1290 546 1450 512" stroke="#F8FAFC" stroke-width="18" stroke-linecap="round"/>
    <path d="M160 640C400 584 638 572 870 610C1080 642 1270 644 1420 620" stroke="#E2E8F0" stroke-width="16" stroke-linecap="round"/>
  </g>
  <g>
    <path d="M486 255C377 255 286 337 263 443C251 496 255 555 278 606C309 676 378 727 461 745C547 764 637 747 708 696" stroke="#111827" stroke-width="34" stroke-linecap="round"/>
    <path d="M1114 255C1223 255 1314 337 1337 443C1349 496 1345 555 1322 606C1291 676 1222 727 1139 745C1053 764 963 747 892 696" stroke="#111827" stroke-width="34" stroke-linecap="round"/>
    <rect x="505" y="254" width="590" height="392" rx="156" fill="url(#glass)" stroke="#111827" stroke-width="34"/>
    <rect x="538" y="287" width="524" height="326" rx="130" fill="#020617" fill-opacity="0.16"/>
    <path d="M800 355V548" stroke="#E2E8F0" stroke-width="8" stroke-dasharray="16 16" stroke-linecap="round"/>
    <path d="M684 354H915" stroke="#E2E8F0" stroke-width="8" stroke-dasharray="16 16" stroke-linecap="round"/>
    <path d="M680 594C732 544 765 471 772 382" stroke="#A5F3FC" stroke-width="10" stroke-linecap="round" opacity="0.75"/>
    <path d="M920 594C868 544 835 471 828 382" stroke="#A5F3FC" stroke-width="10" stroke-linecap="round" opacity="0.75"/>
  </g>
  <g>
    <rect x="88" y="90" width="336" height="104" rx="24" fill="#0F172A" fill-opacity="0.6" stroke="#E2E8F0" stroke-opacity="0.18"/>
    <text x="128" y="135" fill="#F8FAFC" font-family="Inter, Arial, sans-serif" font-size="34" font-weight="700">Unpolarized glare</text>
    <text x="128" y="174" fill="#CBD5E1" font-family="Inter, Arial, sans-serif" font-size="24">mixed light waves bouncing off water</text>
  </g>
  <g>
    <rect x="1176" y="708" width="304" height="106" rx="24" fill="#0F172A" fill-opacity="0.62" stroke="#E2E8F0" stroke-opacity="0.18"/>
    <text x="1214" y="753" fill="#F8FAFC" font-family="Inter, Arial, sans-serif" font-size="34" font-weight="700">Polarized lens</text>
    <text x="1214" y="792" fill="#CBD5E1" font-family="Inter, Arial, sans-serif" font-size="24">blocks most horizontal glare</text>
  </g>
</svg>
