<svg width="1200" height="760" viewBox="0 0 1200 760" fill="none" xmlns="http://www.w3.org/2000/svg">
  <defs>
    <linearGradient id="bg" x1="600" y1="0" x2="600" y2="760" gradientUnits="userSpaceOnUse">
      <stop stop-color="#F8FBFF"/>
      <stop offset="1" stop-color="#E8F2FF"/>
    </linearGradient>
    <linearGradient id="lens" x1="600" y1="162" x2="600" y2="616" gradientUnits="userSpaceOnUse">
      <stop stop-color="#0F172A" stop-opacity="0.1"/>
      <stop offset="1" stop-color="#0F172A" stop-opacity="0.34"/>
    </linearGradient>
  </defs>
  <rect width="1200" height="760" rx="28" fill="url(#bg)"/>
  <g opacity="0.95">
    <rect x="160" y="124" width="880" height="512" rx="44" fill="#ffffff" stroke="#BFDBFE" stroke-width="2"/>
    <rect x="458" y="160" width="284" height="440" rx="128" fill="url(#lens)" stroke="#0F172A" stroke-width="14"/>
    <path d="M600 218V544" stroke="#0F172A" stroke-width="8" stroke-linecap="round" stroke-dasharray="18 18"/>
    <text x="543" y="585" fill="#0F172A" font-family="Inter, Arial, sans-serif" font-size="24" font-weight="700">vertical filter axis</text>
  </g>
  <g>
    <path d="M118 252H462" stroke="#F59E0B" stroke-width="16" stroke-linecap="round"/>
    <path d="M118 380H462" stroke="#F59E0B" stroke-width="16" stroke-linecap="round"/>
    <path d="M118 508H462" stroke="#F59E0B" stroke-width="16" stroke-linecap="round"/>
    <path d="M120 254L156 228" stroke="#F59E0B" stroke-width="16" stroke-linecap="round"/>
    <path d="M120 380L156 354" stroke="#F59E0B" stroke-width="16" stroke-linecap="round"/>
    <path d="M120 508L156 482" stroke="#F59E0B" stroke-width="16" stroke-linecap="round"/>
    <text x="114" y="194" fill="#92400E" font-family="Inter, Arial, sans-serif" font-size="30" font-weight="700">horizontal glare</text>
    <text x="114" y="226" fill="#9A3412" font-family="Inter, Arial, sans-serif" font-size="22">mostly blocked</text>
  </g>
  <g>
    <path d="M602 94V160" stroke="#2563EB" stroke-width="14" stroke-linecap="round"/>
    <path d="M684 94V160" stroke="#2563EB" stroke-width="14" stroke-linecap="round"/>
    <path d="M766 94V160" stroke="#2563EB" stroke-width="14" stroke-linecap="round"/>
    <path d="M602 94L624 116" stroke="#2563EB" stroke-width="14" stroke-linecap="round"/>
    <path d="M684 94L706 116" stroke="#2563EB" stroke-width="14" stroke-linecap="round"/>
    <path d="M766 94L788 116" stroke="#2563EB" stroke-width="14" stroke-linecap="round"/>
    <path d="M602 600V666" stroke="#2563EB" stroke-width="14" stroke-linecap="round"/>
    <path d="M684 600V666" stroke="#2563EB" stroke-width="14" stroke-linecap="round"/>
    <path d="M766 600V666" stroke="#2563EB" stroke-width="14" stroke-linecap="round"/>
    <path d="M602 666L624 644" stroke="#2563EB" stroke-width="14" stroke-linecap="round"/>
    <path d="M684 666L706 644" stroke="#2563EB" stroke-width="14" stroke-linecap="round"/>
    <path d="M766 666L788 644" stroke="#2563EB" stroke-width="14" stroke-linecap="round"/>
    <text x="774" y="124" fill="#1D4ED8" font-family="Inter, Arial, sans-serif" font-size="30" font-weight="700">useful vertical light</text>
    <text x="774" y="156" fill="#1D4ED8" font-family="Inter, Arial, sans-serif" font-size="22">continues through the lens</text>
  </g>
</svg>
